{
    "asset" : {
        "generator" : "Khronos glTF Blender I/O v1.2.75",
        "version" : "2.0"
    },
    "scene" : 0,
    "scenes" : [
        {
            "name" : "Scene",
            "nodes" : [
                0,
                1,
                4
            ]
        }
    ],
    "nodes" : [
        {
            "name" : "Light",
            "rotation" : [
                0.16907575726509094,
                0.7558803558349609,
                -0.27217137813568115,
                0.570947527885437
            ],
            "translation" : [
                4.076245307922363,
                5.903861999511719,
                -1.0054539442062378
            ]
        },
        {
            "name" : "Camera",
            "rotation" : [
                0.483536034822464,
                0.33687159419059753,
                -0.20870360732078552,
                0.7804827094078064
            ],
            "translation" : [
                7.358891487121582,
                4.958309173583984,
                6.925790786743164
            ]
        },
        {
            "mesh" : 0,
            "name" : "Solid1",
            "rotation" : [
                0.5,
                0.5,
                -0.5000000596046448,
                0.4999999403953552
            ],
            "translation" : [
                0,
                0.7582156658172607,
                0.20565110445022583
            ]
        },
        {
            "mesh" : 1,
            "name" : "Solid3",
            "rotation" : [
                0,
                -0.7071067094802856,
                0.7071068286895752,
                1.3767875373105198e-07
            ],
            "scale" : [
                0.9717940092086792,
                0.9717940092086792,
                0.9717940092086792
            ],
            "translation" : [
                0.0005581309087574482,
                -0.20603692531585693,
                0.19018453359603882
            ]
        },
        {
            "children" : [
                2,
                3
            ],
            "name" : "Group001",
            "scale" : [
                0.10000000149011612,
                0.10000000149011612,
                0.10000000149011612
            ],
            "translation" : [
                0,
                0.17016839981079102,
                -0.005223537795245647
            ]
        }
    ],
    "materials" : [
        {
            "doubleSided" : true,
            "emissiveFactor" : [
                0,
                0,
                0
            ],
            "name" : "GrayPlastic",
            "pbrMetallicRoughness" : {
                "baseColorFactor" : [
                    0.6306175589561462,
                    0.6306175589561462,
                    0.6306175589561462,
                    1
                ],
                "metallicFactor" : 0,
                "roughnessFactor" : 0.33005914092063904
            }
        },
        {
            "doubleSided" : true,
            "emissiveFactor" : [
                0,
                0,
                0
            ],
            "name" : "BluePlastic",
            "pbrMetallicRoughness" : {
                "baseColorFactor" : [
                    0.030208228155970573,
                    0.1773306131362915,
                    0.8717108368873596,
                    1
                ],
                "metallicFactor" : 0,
                "roughnessFactor" : 0.4164227843284607
            }
        },
        {
            "doubleSided" : true,
            "emissiveFactor" : [
                0,
                0,
                0
            ],
            "name" : "Steel",
            "pbrMetallicRoughness" : {
                "baseColorFactor" : [
                    0.8616399168968201,
                    0.8616399168968201,
                    0.8616399168968201,
                    1
                ],
                "metallicFactor" : 1,
                "roughnessFactor" : 0.164000004529953
            }
        },
        {
            "doubleSided" : true,
            "emissiveFactor" : [
                0,
                0,
                0
            ],
            "name" : "Copper",
            "pbrMetallicRoughness" : {
                "baseColorFactor" : [
                    0.4793202877044678,
                    0.17144112288951874,
                    0.0331047959625721,
                    1
                ],
                "metallicFactor" : 0.9089999794960022,
                "roughnessFactor" : 0.14800000190734863
            }
        }
    ],
    "meshes" : [
        {
            "name" : "Mesh",
            "primitives" : [
                {
                    "attributes" : {
                        "POSITION" : 0,
                        "NORMAL" : 1,
                        "TEXCOORD_0" : 2
                    },
                    "indices" : 3,
                    "material" : 0
                },
                {
                    "attributes" : {
                        "POSITION" : 4,
                        "NORMAL" : 5,
                        "TEXCOORD_0" : 6
                    },
                    "indices" : 7,
                    "material" : 1
                }
            ]
        },
        {
            "name" : "Mesh.001",
            "primitives" : [
                {
                    "attributes" : {
                        "POSITION" : 8,
                        "NORMAL" : 9,
                        "TEXCOORD_0" : 10
                    },
                    "indices" : 11,
                    "material" : 2
                },
                {
                    "attributes" : {
                        "POSITION" : 12,
                        "NORMAL" : 13,
                        "TEXCOORD_0" : 14
                    },
                    "indices" : 15,
                    "material" : 3
                }
            ]
        }
    ],
    "accessors" : [
        {
            "bufferView" : 0,
            "componentType" : 5126,
            "count" : 16612,
            "max" : [
                0.8472911715507507,
                0.7834645509719849,
                1.0755906105041504
            ],
            "min" : [
                -1.1766338348388672,
                -0.7834645509719849,
                -0.29527559876441956
            ],
            "type" : "VEC3"
        },
        {
            "bufferView" : 1,
            "componentType" : 5126,
            "count" : 16612,
            "type" : "VEC3"
        },
        {
            "bufferView" : 2,
            "componentType" : 5126,
            "count" : 16612,
            "type" : "VEC2"
        },
        {
            "bufferView" : 3,
            "componentType" : 5123,
            "count" : 53025,
            "type" : "SCALAR"
        },
        {
            "bufferView" : 4,
            "componentType" : 5126,
            "count" : 4753,
            "max" : [
                0.7798305153846741,
                0.75,
                1.614179102882307e-11
            ],
            "min" : [
                -1.1102361679077148,
                -0.75,
                -0.9055117964744568
            ],
            "type" : "VEC3"
        },
        {
            "bufferView" : 5,
            "componentType" : 5126,
            "count" : 4753,
            "type" : "VEC3"
        },
        {
            "bufferView" : 6,
            "componentType" : 5126,
            "count" : 4753,
            "type" : "VEC2"
        },
        {
            "bufferView" : 7,
            "componentType" : 5123,
            "count" : 14673,
            "type" : "SCALAR"
        },
        {
            "bufferView" : 8,
            "componentType" : 5126,
            "count" : 1487,
            "max" : [
                0.27558615803718567,
                0.41240158677101135,
                0.29429134726524353
            ],
            "min" : [
                -0.27558615803718567,
                -0.27559053897857666,
                -1.7639274597167969
            ],
            "type" : "VEC3"
        },
        {
            "bufferView" : 9,
            "componentType" : 5126,
            "count" : 1487,
            "type" : "VEC3"
        },
        {
            "bufferView" : 10,
            "componentType" : 5126,
            "count" : 1487,
            "type" : "VEC2"
        },
        {
            "bufferView" : 11,
            "componentType" : 5123,
            "count" : 5034,
            "type" : "SCALAR"
        },
        {
            "bufferView" : 12,
            "componentType" : 5126,
            "count" : 112,
            "max" : [
                0.125,
                1.618110179901123,
                1.5
            ],
            "min" : [
                -0.125,
                -0.12493187189102173,
                -0.3198818862438202
            ],
            "type" : "VEC3"
        },
        {
            "bufferView" : 13,
            "componentType" : 5126,
            "count" : 112,
            "type" : "VEC3"
        },
        {
            "bufferView" : 14,
            "componentType" : 5126,
            "count" : 112,
            "type" : "VEC2"
        },
        {
            "bufferView" : 15,
            "componentType" : 5123,
            "count" : 312,
            "type" : "SCALAR"
        }
    ],
    "bufferViews" : [
        {
            "buffer" : 0,
            "byteLength" : 199344,
            "byteOffset" : 0
        },
        {
            "buffer" : 0,
            "byteLength" : 199344,
            "byteOffset" : 199344
        },
        {
            "buffer" : 0,
            "byteLength" : 132896,
            "byteOffset" : 398688
        },
        {
            "buffer" : 0,
            "byteLength" : 106050,
            "byteOffset" : 531584
        },
        {
            "buffer" : 0,
            "byteLength" : 57036,
            "byteOffset" : 637636
        },
        {
            "buffer" : 0,
            "byteLength" : 57036,
            "byteOffset" : 694672
        },
        {
            "buffer" : 0,
            "byteLength" : 38024,
            "byteOffset" : 751708
        },
        {
            "buffer" : 0,
            "byteLength" : 29346,
            "byteOffset" : 789732
        },
        {
            "buffer" : 0,
            "byteLength" : 17844,
            "byteOffset" : 819080
        },
        {
            "buffer" : 0,
            "byteLength" : 17844,
            "byteOffset" : 836924
        },
        {
            "buffer" : 0,
            "byteLength" : 11896,
            "byteOffset" : 854768
        },
        {
            "buffer" : 0,
            "byteLength" : 10068,
            "byteOffset" : 866664
        },
        {
            "buffer" : 0,
            "byteLength" : 1344,
            "byteOffset" : 876732
        },
        {
            "buffer" : 0,
            "byteLength" : 1344,
            "byteOffset" : 878076
        },
        {
            "buffer" : 0,
            "byteLength" : 896,
            "byteOffset" : 879420
        },
        {
            "buffer" : 0,
            "byteLength" : 624,
            "byteOffset" : 880316
        }
    ],
    "buffers" : [
        {
            "byteLength" : 880940,
            "uri" : "data:application/octet-stream;base64,"
        }
    ]
}
